<mxfile host="app.diagrams.net" agent="Mozilla/5.0 (Windows NT 10.0; Win64; x64) AppleWebKit/537.36 (KHTML, like Gecko) Chrome/141.0.0.0 Safari/537.36" version="28.2.5">
  <diagram name="Page-1" id="mXeHzpeihM_zkkgyVyMK">
    <mxGraphModel dx="1226" dy="661" grid="1" gridSize="10" guides="1" tooltips="1" connect="1" arrows="1" fold="1" page="1" pageScale="1" pageWidth="850" pageHeight="1100" math="0" shadow="0">
      <root>
        <mxCell id="0" />
        <mxCell id="1" parent="0" />
        <mxCell id="Cv1RX9fRt9egd39nL_HI-5" value="" style="swimlane;startSize=0;" vertex="1" parent="1">
          <mxGeometry x="330" y="51" width="590" height="120" as="geometry" />
        </mxCell>
        <mxCell id="Cv1RX9fRt9egd39nL_HI-6" value="Data Modelling" style="rounded=0;whiteSpace=wrap;html=1;" vertex="1" parent="Cv1RX9fRt9egd39nL_HI-5">
          <mxGeometry x="35" y="20" width="120" height="60" as="geometry" />
        </mxCell>
        <mxCell id="Cv1RX9fRt9egd39nL_HI-7" value="Semantic Layer" style="text;html=1;align=center;verticalAlign=middle;resizable=0;points=[];autosize=1;strokeColor=none;fillColor=none;" vertex="1" parent="Cv1RX9fRt9egd39nL_HI-5">
          <mxGeometry x="240" y="87" width="110" height="30" as="geometry" />
        </mxCell>
        <mxCell id="Cv1RX9fRt9egd39nL_HI-9" value="API" style="rounded=0;whiteSpace=wrap;html=1;" vertex="1" parent="Cv1RX9fRt9egd39nL_HI-5">
          <mxGeometry x="170" y="20" width="120" height="60" as="geometry" />
        </mxCell>
        <mxCell id="Cv1RX9fRt9egd39nL_HI-10" value="RBAC" style="rounded=0;whiteSpace=wrap;html=1;" vertex="1" parent="Cv1RX9fRt9egd39nL_HI-5">
          <mxGeometry x="305" y="20" width="120" height="60" as="geometry" />
        </mxCell>
        <mxCell id="Cv1RX9fRt9egd39nL_HI-12" value="Caching" style="rounded=0;whiteSpace=wrap;html=1;" vertex="1" parent="Cv1RX9fRt9egd39nL_HI-5">
          <mxGeometry x="440" y="20" width="120" height="60" as="geometry" />
        </mxCell>
        <mxCell id="Cv1RX9fRt9egd39nL_HI-24" value="" style="group" vertex="1" connectable="0" parent="1">
          <mxGeometry x="150" y="190" width="180" height="390" as="geometry" />
        </mxCell>
        <mxCell id="Cv1RX9fRt9egd39nL_HI-15" value="" style="swimlane;startSize=0;" vertex="1" parent="Cv1RX9fRt9egd39nL_HI-24">
          <mxGeometry width="180" height="390" as="geometry" />
        </mxCell>
        <mxCell id="Cv1RX9fRt9egd39nL_HI-18" value="Data Catalog Layer" style="text;html=1;align=center;verticalAlign=middle;resizable=0;points=[];autosize=1;strokeColor=none;fillColor=none;" vertex="1" parent="Cv1RX9fRt9egd39nL_HI-15">
          <mxGeometry x="27" y="-5" width="130" height="30" as="geometry" />
        </mxCell>
        <mxCell id="Cv1RX9fRt9egd39nL_HI-23" value="" style="group" vertex="1" connectable="0" parent="Cv1RX9fRt9egd39nL_HI-15">
          <mxGeometry x="30" y="19" width="120" height="277" as="geometry" />
        </mxCell>
        <mxCell id="Cv1RX9fRt9egd39nL_HI-17" value="PTD Catalog" style="rounded=0;whiteSpace=wrap;html=1;" vertex="1" parent="Cv1RX9fRt9egd39nL_HI-23">
          <mxGeometry y="5" width="120" height="60" as="geometry" />
        </mxCell>
        <mxCell id="Cv1RX9fRt9egd39nL_HI-19" value="Process Param Catalog" style="rounded=0;whiteSpace=wrap;html=1;" vertex="1" parent="Cv1RX9fRt9egd39nL_HI-23">
          <mxGeometry y="78" width="120" height="60" as="geometry" />
        </mxCell>
        <mxCell id="Cv1RX9fRt9egd39nL_HI-20" value="Equipment Catalog" style="rounded=0;whiteSpace=wrap;html=1;" vertex="1" parent="Cv1RX9fRt9egd39nL_HI-23">
          <mxGeometry y="151" width="120" height="60" as="geometry" />
        </mxCell>
        <mxCell id="Cv1RX9fRt9egd39nL_HI-22" value="RBAC" style="rounded=0;whiteSpace=wrap;html=1;direction=west;" vertex="1" parent="Cv1RX9fRt9egd39nL_HI-23">
          <mxGeometry y="225" width="120" height="57" as="geometry" />
        </mxCell>
        <mxCell id="Cv1RX9fRt9egd39nL_HI-21" value="API" style="rounded=0;whiteSpace=wrap;html=1;direction=west;" vertex="1" parent="Cv1RX9fRt9egd39nL_HI-24">
          <mxGeometry x="30" y="315" width="120" height="60" as="geometry" />
        </mxCell>
        <mxCell id="Cv1RX9fRt9egd39nL_HI-27" value="" style="swimlane;startSize=0;" vertex="1" parent="1">
          <mxGeometry x="540" y="320" width="465" height="200" as="geometry" />
        </mxCell>
        <mxCell id="Cv1RX9fRt9egd39nL_HI-41" value="" style="group" vertex="1" connectable="0" parent="Cv1RX9fRt9egd39nL_HI-27">
          <mxGeometry x="245" y="23" width="90" height="126" as="geometry" />
        </mxCell>
        <mxCell id="Cv1RX9fRt9egd39nL_HI-37" value="" style="group" vertex="1" connectable="0" parent="Cv1RX9fRt9egd39nL_HI-41">
          <mxGeometry x="20" width="50" height="90" as="geometry" />
        </mxCell>
        <mxCell id="Cv1RX9fRt9egd39nL_HI-38" value="" style="shape=cylinder3;whiteSpace=wrap;html=1;boundedLbl=1;backgroundOutline=1;size=15;" vertex="1" parent="Cv1RX9fRt9egd39nL_HI-37">
          <mxGeometry width="50" height="90" as="geometry" />
        </mxCell>
        <mxCell id="Cv1RX9fRt9egd39nL_HI-40" value="Datasources" style="text;html=1;align=center;verticalAlign=middle;resizable=0;points=[];autosize=1;strokeColor=none;fillColor=none;" vertex="1" parent="Cv1RX9fRt9egd39nL_HI-41">
          <mxGeometry y="96" width="90" height="30" as="geometry" />
        </mxCell>
        <mxCell id="Cv1RX9fRt9egd39nL_HI-42" value="" style="group" vertex="1" connectable="0" parent="Cv1RX9fRt9egd39nL_HI-27">
          <mxGeometry x="370" y="27" width="50" height="90" as="geometry" />
        </mxCell>
        <mxCell id="Cv1RX9fRt9egd39nL_HI-43" value="" style="shape=cylinder3;whiteSpace=wrap;html=1;boundedLbl=1;backgroundOutline=1;size=15;" vertex="1" parent="Cv1RX9fRt9egd39nL_HI-42">
          <mxGeometry width="50" height="90" as="geometry" />
        </mxCell>
        <mxCell id="Cv1RX9fRt9egd39nL_HI-44" value="SoT/Golden Records" style="text;html=1;align=center;verticalAlign=middle;resizable=0;points=[];autosize=1;strokeColor=none;fillColor=none;" vertex="1" parent="Cv1RX9fRt9egd39nL_HI-27">
          <mxGeometry x="325" y="123" width="140" height="30" as="geometry" />
        </mxCell>
        <mxCell id="Cv1RX9fRt9egd39nL_HI-45" value="Knowledge Base" style="text;html=1;align=center;verticalAlign=middle;resizable=0;points=[];autosize=1;strokeColor=none;fillColor=none;" vertex="1" parent="Cv1RX9fRt9egd39nL_HI-27">
          <mxGeometry x="170" y="160" width="110" height="30" as="geometry" />
        </mxCell>
        <mxCell id="Cv1RX9fRt9egd39nL_HI-28" value="" style="shape=cylinder3;whiteSpace=wrap;html=1;boundedLbl=1;backgroundOutline=1;size=15;" vertex="1" parent="1">
          <mxGeometry x="580" y="340" width="50" height="90" as="geometry" />
        </mxCell>
        <mxCell id="Cv1RX9fRt9egd39nL_HI-25" value="" style="points=[];html=1;align=center;shadow=0;dashed=0;fillColor=#FF6A00;strokeColor=none;shape=mxgraph.alibaba_cloud.opensearch;" vertex="1" parent="1">
          <mxGeometry x="588" y="382" width="35" height="35" as="geometry" />
        </mxCell>
        <mxCell id="Cv1RX9fRt9egd39nL_HI-29" value="OpenSearch&amp;nbsp;&lt;div&gt;VectorDB Engine&lt;/div&gt;" style="text;html=1;align=center;verticalAlign=middle;resizable=0;points=[];autosize=1;strokeColor=none;fillColor=none;" vertex="1" parent="1">
          <mxGeometry x="550.5" y="429" width="110" height="40" as="geometry" />
        </mxCell>
        <mxCell id="Cv1RX9fRt9egd39nL_HI-35" value="" style="group" vertex="1" connectable="0" parent="1">
          <mxGeometry x="673" y="343" width="109" height="131" as="geometry" />
        </mxCell>
        <mxCell id="Cv1RX9fRt9egd39nL_HI-34" value="" style="group" vertex="1" connectable="0" parent="Cv1RX9fRt9egd39nL_HI-35">
          <mxGeometry x="22" width="50" height="90" as="geometry" />
        </mxCell>
        <mxCell id="Cv1RX9fRt9egd39nL_HI-31" value="" style="shape=cylinder3;whiteSpace=wrap;html=1;boundedLbl=1;backgroundOutline=1;size=15;" vertex="1" parent="Cv1RX9fRt9egd39nL_HI-34">
          <mxGeometry width="50" height="90" as="geometry" />
        </mxCell>
        <mxCell id="Cv1RX9fRt9egd39nL_HI-30" value="" style="image;html=1;points=[];align=center;fontSize=12;image=img/lib/azure2/management_governance/Resource_Graph_Explorer.svg;" vertex="1" parent="Cv1RX9fRt9egd39nL_HI-34">
          <mxGeometry x="11" y="43" width="30" height="30" as="geometry" />
        </mxCell>
        <mxCell id="Cv1RX9fRt9egd39nL_HI-32" value="Knowledge Graph&lt;br&gt;(Neo4j)" style="text;html=1;align=center;verticalAlign=middle;resizable=0;points=[];autosize=1;strokeColor=none;fillColor=none;" vertex="1" parent="Cv1RX9fRt9egd39nL_HI-35">
          <mxGeometry x="-11" y="91" width="120" height="40" as="geometry" />
        </mxCell>
        <mxCell id="Cv1RX9fRt9egd39nL_HI-46" value="" style="swimlane;startSize=0;" vertex="1" parent="1">
          <mxGeometry x="280" y="650" width="590" height="120" as="geometry" />
        </mxCell>
        <mxCell id="Cv1RX9fRt9egd39nL_HI-47" value="Data Modelling" style="rounded=0;whiteSpace=wrap;html=1;" vertex="1" parent="Cv1RX9fRt9egd39nL_HI-46">
          <mxGeometry x="35" y="20" width="120" height="60" as="geometry" />
        </mxCell>
        <mxCell id="Cv1RX9fRt9egd39nL_HI-48" value="Consumer System" style="text;html=1;align=center;verticalAlign=middle;resizable=0;points=[];autosize=1;strokeColor=none;fillColor=none;" vertex="1" parent="Cv1RX9fRt9egd39nL_HI-46">
          <mxGeometry x="235" y="87" width="120" height="30" as="geometry" />
        </mxCell>
        <mxCell id="Cv1RX9fRt9egd39nL_HI-49" value="API" style="rounded=0;whiteSpace=wrap;html=1;" vertex="1" parent="Cv1RX9fRt9egd39nL_HI-46">
          <mxGeometry x="170" y="20" width="120" height="60" as="geometry" />
        </mxCell>
        <mxCell id="Cv1RX9fRt9egd39nL_HI-50" value="RBAC" style="rounded=0;whiteSpace=wrap;html=1;" vertex="1" parent="Cv1RX9fRt9egd39nL_HI-46">
          <mxGeometry x="305" y="20" width="120" height="60" as="geometry" />
        </mxCell>
        <mxCell id="Cv1RX9fRt9egd39nL_HI-51" value="Caching" style="rounded=0;whiteSpace=wrap;html=1;" vertex="1" parent="Cv1RX9fRt9egd39nL_HI-46">
          <mxGeometry x="440" y="20" width="120" height="60" as="geometry" />
        </mxCell>
      </root>
    </mxGraphModel>
  </diagram>
</mxfile>
